<?xml version="1.0" encoding="UTF-8" standalone="no"?>
<!-- Created with Inkscape (http://www.inkscape.org/) -->
<svg
   xmlns:dc="http://purl.org/dc/elements/1.1/"
   xmlns:cc="http://creativecommons.org/ns#"
   xmlns:rdf="http://www.w3.org/1999/02/22-rdf-syntax-ns#"
   xmlns:svg="http://www.w3.org/2000/svg"
   xmlns="http://www.w3.org/2000/svg"
   xmlns:sodipodi="http://sodipodi.sourceforge.net/DTD/sodipodi-0.dtd"
   xmlns:inkscape="http://www.inkscape.org/namespaces/inkscape"
   width="128"
   height="128"
   id="svg2160"
   sodipodi:version="0.32"
   inkscape:version="0.46"
   sodipodi:docbase="/home/changfu/.cairo-dock/current_theme/icons"
   sodipodi:docname="neon.svg"
   inkscape:output_extension="org.inkscape.output.svg.inkscape"
   version="1.0">
  <sodipodi:namedview
     id="base"
     pagecolor="#ffffff"
     bordercolor="#666666"
     borderopacity="1.0"
     inkscape:pageopacity="0.0"
     inkscape:pageshadow="2"
     inkscape:zoom="2.1545027"
     inkscape:cx="65.254397"
     inkscape:cy="43.872937"
     inkscape:current-layer="layer1"
     showgrid="true"
     inkscape:grid-bbox="true"
     inkscape:document-units="px"
     inkscape:window-width="1438"
     inkscape:window-height="804"
     inkscape:window-x="1"
     inkscape:window-y="45"
     width="128px"
     height="128px" />
  <defs
     id="defs2162">
    <inkscape:perspective
       id="perspective59"
       inkscape:persp3d-origin="64 : 42.666667 : 1"
       inkscape:vp_z="128 : 64 : 1"
       inkscape:vp_y="0 : 1000 : 0"
       inkscape:vp_x="0 : 64 : 1"
       sodipodi:type="inkscape:persp3d" />
    <marker
       refY="0"
       refX="0"
       style="overflow:visible"
       orient="auto"
       inkscape:stockid="Dot_s"
       id="Dot_s">
      <path
         style="fill-rule:evenodd;stroke:#000000;stroke-width:1pt;marker-start:none;marker-end:none"
         transform="matrix(0.2,0,0,0.2,1.48,0.2)"
         d="M -2.5,-1 C -2.5,1.76 -4.74,4 -7.5,4 C -10.26,4 -12.5,1.76 -12.5,-1 C -12.5,-3.76 -10.26,-6 -7.5,-6 C -4.74,-6 -2.5,-3.76 -2.5,-1 z "
         id="path7261" />
    </marker>
    <marker
       refY="0"
       refX="0"
       style="overflow:visible"
       orient="auto"
       inkscape:stockid="Dot_m"
       id="Dot_m">
      <path
         style="fill-rule:evenodd;stroke:#000000;stroke-width:1pt;marker-start:none;marker-end:none"
         transform="matrix(0.4,0,0,0.4,2.96,0.4)"
         d="M -2.5,-1 C -2.5,1.76 -4.74,4 -7.5,4 C -10.26,4 -12.5,1.76 -12.5,-1 C -12.5,-3.76 -10.26,-6 -7.5,-6 C -4.74,-6 -2.5,-3.76 -2.5,-1 z "
         id="path7258" />
    </marker>
    <marker
       refY="0"
       refX="0"
       style="overflow:visible"
       orient="auto"
       inkscape:stockid="Dot_l"
       id="Dot_l">
      <path
         style="fill-rule:evenodd;stroke:#000000;stroke-width:1pt;marker-start:none;marker-end:none"
         transform="matrix(0.8,0,0,0.8,5.92,0.8)"
         d="M -2.5,-1 C -2.5,1.76 -4.74,4 -7.5,4 C -10.26,4 -12.5,1.76 -12.5,-1 C -12.5,-3.76 -10.26,-6 -7.5,-6 C -4.74,-6 -2.5,-3.76 -2.5,-1 z "
         id="path7255" />
    </marker>
    <marker
       refY="0"
       refX="0"
       style="overflow:visible"
       orient="auto"
       inkscape:stockid="DistanceOut"
       id="DistanceOut">
      <g
         id="g7249">
        <path
           style="fill:none;stroke:#ffffff;stroke-width:1.14999998;stroke-linecap:square"
           id="path2316"
           d="M 0,0 L -2,0" />
        <path
           style="fill:#000000;fill-rule:evenodd;stroke:none"
           id="path2312"
           d="M 0,0 L -13,4 L -9,0 L -13,-4 L 0,0 z " />
        <path
           style="fill:none;stroke:#000000;stroke-width:1;stroke-linecap:square"
           id="path2314"
           d="M 0,-4 L 0,40" />
      </g>
    </marker>
    <marker
       refY="0"
       refX="0"
       style="overflow:visible"
       orient="auto"
       inkscape:stockid="DistanceIn"
       id="DistanceIn">
      <g
         id="g2300">
        <path
           style="fill:none;stroke:#ffffff;stroke-width:1.14999998;stroke-linecap:square"
           id="path2306"
           d="M 0,0 L 2,0" />
        <path
           style="fill:#000000;fill-rule:evenodd;stroke:none"
           id="path2302"
           d="M 0,0 L 13,4 L 9,0 L 13,-4 L 0,0 z " />
        <path
           style="fill:none;stroke:#000000;stroke-width:1;stroke-linecap:square"
           id="path2304"
           d="M 0,-4 L 0,40" />
      </g>
    </marker>
    <marker
       refY="0"
       refX="0"
       style="overflow:visible"
       orient="auto"
       inkscape:stockid="Tail"
       id="Tail">
      <g
         transform="scale(-1.2,-1.2)"
         id="g7229">
        <path
           style="fill:none;fill-rule:evenodd;stroke:#000000;stroke-width:0.80000001;stroke-linecap:round;marker-start:none;marker-end:none"
           d="M -3.8048674,-3.9585227 L 0.54352094,0"
           id="path7231" />
        <path
           style="fill:none;fill-rule:evenodd;stroke:#000000;stroke-width:0.80000001;stroke-linecap:round;marker-start:none;marker-end:none"
           d="M -1.2866832,-3.9585227 L 3.0617053,0"
           id="path7233" />
        <path
           style="fill:none;fill-rule:evenodd;stroke:#000000;stroke-width:0.80000001;stroke-linecap:round;marker-start:none;marker-end:none"
           d="M 1.3053582,-3.9585227 L 5.6537466,0"
           id="path7235" />
        <path
           style="fill:none;fill-rule:evenodd;stroke:#000000;stroke-width:0.80000001;stroke-linecap:round;marker-start:none;marker-end:none"
           d="M -3.8048674,4.1775838 L 0.54352094,0.21974226"
           id="path7237" />
        <path
           style="fill:none;fill-rule:evenodd;stroke:#000000;stroke-width:0.80000001;stroke-linecap:round;marker-start:none;marker-end:none"
           d="M -1.2866832,4.1775838 L 3.0617053,0.21974226"
           id="path7239" />
        <path
           style="fill:none;fill-rule:evenodd;stroke:#000000;stroke-width:0.80000001;stroke-linecap:round;marker-start:none;marker-end:none"
           d="M 1.3053582,4.1775838 L 5.6537466,0.21974226"
           id="path7241" />
      </g>
    </marker>
    <marker
       refY="0"
       refX="0"
       style="overflow:visible"
       orient="auto"
       inkscape:stockid="Arrow2Send"
       id="Arrow2Send">
      <path
         style="font-size:12px;fill-rule:evenodd;stroke-width:0.625;stroke-linejoin:round"
         transform="matrix(-0.3,0,0,-0.3,0.69,0)"
         d="M 8.7185878,4.0337352 L -2.2072895,0.016013256 L 8.7185884,-4.0017078 C 6.97309,-1.6296469 6.9831476,1.6157441 8.7185878,4.0337352 z "
         id="path7226" />
    </marker>
    <marker
       refY="0"
       refX="0"
       style="overflow:visible"
       orient="auto"
       inkscape:stockid="Arrow2Sstart"
       id="Arrow2Sstart">
      <path
         style="font-size:12px;fill-rule:evenodd;stroke-width:0.625;stroke-linejoin:round"
         transform="matrix(0.3,0,0,0.3,-0.69,0)"
         d="M 8.7185878,4.0337352 L -2.2072895,0.016013256 L 8.7185884,-4.0017078 C 6.97309,-1.6296469 6.9831476,1.6157441 8.7185878,4.0337352 z "
         id="path7223" />
    </marker>
    <marker
       refY="0"
       refX="0"
       style="overflow:visible"
       orient="auto"
       inkscape:stockid="Arrow2Mend"
       id="Arrow2Mend">
      <path
         style="font-size:12px;fill-rule:evenodd;stroke-width:0.625;stroke-linejoin:round"
         transform="scale(-0.6,-0.6)"
         d="M 8.7185878,4.0337352 L -2.2072895,0.016013256 L 8.7185884,-4.0017078 C 6.97309,-1.6296469 6.9831476,1.6157441 8.7185878,4.0337352 z "
         id="path7220" />
    </marker>
    <marker
       refY="0"
       refX="0"
       style="overflow:visible"
       orient="auto"
       inkscape:stockid="Arrow2Mstart"
       id="Arrow2Mstart">
      <path
         style="font-size:12px;fill-rule:evenodd;stroke-width:0.625;stroke-linejoin:round"
         transform="scale(0.6,0.6)"
         d="M 8.7185878,4.0337352 L -2.2072895,0.016013256 L 8.7185884,-4.0017078 C 6.97309,-1.6296469 6.9831476,1.6157441 8.7185878,4.0337352 z "
         id="path7217" />
    </marker>
    <marker
       refY="0"
       refX="0"
       style="overflow:visible"
       orient="auto"
       inkscape:stockid="Arrow2Lend"
       id="Arrow2Lend">
      <path
         style="font-size:12px;fill-rule:evenodd;stroke-width:0.625;stroke-linejoin:round"
         transform="matrix(-1.1,0,0,-1.1,-1.1,0)"
         d="M 8.7185878,4.0337352 L -2.2072895,0.016013256 L 8.7185884,-4.0017078 C 6.97309,-1.6296469 6.9831476,1.6157441 8.7185878,4.0337352 z "
         id="path7214" />
    </marker>
    <marker
       refY="0"
       refX="0"
       style="overflow:visible"
       orient="auto"
       inkscape:stockid="Arrow2Lstart"
       id="Arrow2Lstart">
      <path
         style="font-size:12px;fill-rule:evenodd;stroke-width:0.625;stroke-linejoin:round"
         transform="matrix(1.1,0,0,1.1,1.1,0)"
         d="M 8.7185878,4.0337352 L -2.2072895,0.016013256 L 8.7185884,-4.0017078 C 6.97309,-1.6296469 6.9831476,1.6157441 8.7185878,4.0337352 z "
         id="path7211" />
    </marker>
    <marker
       refY="0"
       refX="0"
       style="overflow:visible"
       orient="auto"
       inkscape:stockid="Arrow1Send"
       id="Arrow1Send">
      <path
         style="fill-rule:evenodd;stroke:#000000;stroke-width:1pt;marker-start:none"
         transform="matrix(-0.2,0,0,-0.2,-1.2,0)"
         d="M 0,0 L 5,-5 L -12.5,0 L 5,5 L 0,0 z "
         id="path7208" />
    </marker>
    <marker
       refY="0"
       refX="0"
       style="overflow:visible"
       orient="auto"
       inkscape:stockid="Arrow1Sstart"
       id="Arrow1Sstart">
      <path
         style="fill-rule:evenodd;stroke:#000000;stroke-width:1pt;marker-start:none"
         transform="matrix(0.2,0,0,0.2,1.2,0)"
         d="M 0,0 L 5,-5 L -12.5,0 L 5,5 L 0,0 z "
         id="path7205" />
    </marker>
    <marker
       refY="0"
       refX="0"
       style="overflow:visible"
       orient="auto"
       inkscape:stockid="Arrow1Mend"
       id="Arrow1Mend">
      <path
         style="fill-rule:evenodd;stroke:#000000;stroke-width:1pt;marker-start:none"
         transform="matrix(-0.4,0,0,-0.4,-4,0)"
         d="M 0,0 L 5,-5 L -12.5,0 L 5,5 L 0,0 z "
         id="path7202" />
    </marker>
    <marker
       refY="0"
       refX="0"
       style="overflow:visible"
       orient="auto"
       inkscape:stockid="Arrow1Mstart"
       id="Arrow1Mstart">
      <path
         style="fill-rule:evenodd;stroke:#000000;stroke-width:1pt;marker-start:none"
         transform="matrix(0.4,0,0,0.4,4,0)"
         d="M 0,0 L 5,-5 L -12.5,0 L 5,5 L 0,0 z "
         id="path7199" />
    </marker>
    <filter
       id="filter7562"
       inkscape:collect="always">
      <feGaussianBlur
         stdDeviation="1.07102"
         id="feGaussianBlur7564"
         inkscape:collect="always" />
    </filter>
    <filter
       id="filter4236"
       inkscape:collect="always">
      <feGaussianBlur
         id="feGaussianBlur4238"
         stdDeviation="0.57090113"
         inkscape:collect="always" />
    </filter>
  </defs>
  <metadata
     id="metadata2165">
    <rdf:RDF>
      <cc:Work
         rdf:about="">
        <dc:format>image/svg+xml</dc:format>
        <dc:type
           rdf:resource="http://purl.org/dc/dcmitype/StillImage" />
      </cc:Work>
    </rdf:RDF>
  </metadata>
  <g
     style="display:inline"
     inkscape:label="Layer 1"
     id="layer1"
     inkscape:groupmode="layer">
    <path
       sodipodi:rx="23.785715"
       sodipodi:ry="11.642857"
       style="opacity:0.92758622;fill:none;fill-rule:evenodd;stroke:#a4a4a4;stroke-width:3.6657145;stroke-linecap:butt;stroke-linejoin:miter;marker-start:none;marker-mid:none;marker-end:none;stroke-miterlimit:4;stroke-dasharray:none;stroke-opacity:1;filter:url(#filter7562)"
       sodipodi:type="arc"
       d="M 47.57143 39.92857 A 23.785715 11.642857 0 1 1  0,39.92857 A 23.785715 11.642857 0 1 1  47.57143 39.92857 z"
       transform="matrix(2.3601466,0,-0.2258777,1.8208916,16.881198,10.198403)"
       sodipodi:cy="39.92857"
       sodipodi:cx="23.785715"
       id="path2168" />
    <path
       sodipodi:rx="23.785715"
       sodipodi:ry="11.642857"
       style="opacity:1;fill:none;fill-rule:evenodd;stroke:#e3e3e3;stroke-width:0.72356862;stroke-linecap:butt;stroke-linejoin:miter;marker-start:none;marker-mid:none;marker-end:none;stroke-miterlimit:4;stroke-dasharray:none;stroke-opacity:1;filter:url(#filter4236)"
       sodipodi:type="arc"
       d="M 47.57143 39.92857 A 23.785715 11.642857 0 1 1  0,39.92857 A 23.785715 11.642857 0 1 1  47.57143 39.92857 z"
       transform="matrix(2.3601466,0,-0.2258777,1.8208916,14.086663,4.3444316)"
       sodipodi:cy="39.92857"
       sodipodi:cx="23.785715"
       id="path2205" />
    <path
       sodipodi:rx="23.785715"
       sodipodi:ry="11.642857"
       style="opacity:0.2;fill:none;fill-rule:evenodd;stroke:#a4a4a4;stroke-width:3.6657145;stroke-linecap:butt;stroke-linejoin:miter;marker-start:none;marker-mid:none;marker-end:none;stroke-miterlimit:4;stroke-dasharray:none;stroke-opacity:1;display:inline;filter:url(#filter7562)"
       sodipodi:type="arc"
       d="M 47.57143 39.92857 A 23.785715 11.642857 0 1 1  0,39.92857 A 23.785715 11.642857 0 1 1  47.57143 39.92857 z"
       transform="matrix(2.3601466,0,-0.2258777,1.8208916,17.397246,30.694754)"
       sodipodi:cy="39.92857"
       sodipodi:cx="23.785715"
       id="path2208" />
  </g>
  <g
     style="display:none"
     sodipodi:insensitive="true"
     inkscape:label="Ligth"
     id="layer2"
     inkscape:groupmode="layer" />
</svg>
