<?xml version="1.0" encoding="UTF-8" standalone="no"?>
<!-- Created with Inkscape (http://www.inkscape.org/) -->
<svg
   xmlns:dc="http://purl.org/dc/elements/1.1/"
   xmlns:cc="http://web.resource.org/cc/"
   xmlns:rdf="http://www.w3.org/1999/02/22-rdf-syntax-ns#"
   xmlns:svg="http://www.w3.org/2000/svg"
   xmlns="http://www.w3.org/2000/svg"
   xmlns:sodipodi="http://sodipodi.sourceforge.net/DTD/sodipodi-0.dtd"
   xmlns:inkscape="http://www.inkscape.org/namespaces/inkscape"
   width="48px"
   height="48px"
   id="svg2160"
   sodipodi:version="0.32"
   inkscape:version="0.45.1"
   sodipodi:docbase="/home/changfu/.cairo-dock/current_theme"
   sodipodi:docname="bubble-ok.svg"
   inkscape:output_extension="org.inkscape.output.svg.inkscape">
  <defs
     id="defs2162" />
  <sodipodi:namedview
     id="base"
     pagecolor="#ffffff"
     bordercolor="#666666"
     borderopacity="1.0"
     inkscape:pageopacity="0.0"
     inkscape:pageshadow="2"
     inkscape:zoom="10.610016"
     inkscape:cx="21.524132"
     inkscape:cy="21.177485"
     inkscape:current-layer="layer1"
     showgrid="true"
     inkscape:grid-bbox="true"
     inkscape:document-units="px"
     inkscape:window-width="926"
     inkscape:window-height="690"
     inkscape:window-x="238"
     inkscape:window-y="114" />
  <metadata
     id="metadata2165">
    <rdf:RDF>
      <cc:Work
         rdf:about="">
        <dc:format>image/svg+xml</dc:format>
        <dc:type
           rdf:resource="http://purl.org/dc/dcmitype/StillImage" />
      </cc:Work>
    </rdf:RDF>
  </metadata>
  <g
     id="layer1"
     inkscape:label="Layer 1"
     inkscape:groupmode="layer">
    <g
       id="g2242">
      <path
         style="fill:#a1c4a1"
         d="M 12.73408,40.455528 C 3.8033128,33.221328 1.8579141,23.943698 7.1328354,13.743125 C 14.149844,0.17372583 34.144414,-0.41840326 42.147312,12.706189 C 51.11432,27.411904 42.04791,43.911056 25,43.911056 C 20.399534,43.911056 15.187232,42.442658 12.73408,40.455528 z M 30.806966,24 C 35.240004,15.85505 35.663976,14 33.092468,14 C 31.356018,14 28.433156,17.15 26.597218,21 C 23.170694,28.185496 21.166086,29.5048 19,26 C 18.320163,24.9 16.760165,24 15.533338,24 C 14.306511,24 15.416509,26.25 18,29 C 20.58349,31.75 23.297338,34 24.03077,34 C 24.764204,34 27.813492,29.5 30.806966,24 z "
         id="path2256" />
      <path
         style="fill:#9eb29e"
         d="M 11.577008,38.204672 C 6.2786678,33.470606 5.090909,30.922234 5.090909,24.288552 C 5.090909,3.3508132 33.489718,-4.3908584 42.9793,13.959969 C 46.883168,21.509218 46.797866,27.032152 42.669458,34.020992 C 35.956602,45.384948 21.752232,47.296234 11.577008,38.204672 z M 36,14.680462 C 36,14.306208 34.63544,14 32.967642,14 C 31.299846,14 28.468604,17.075664 26.675992,20.83481 C 23.881318,26.6953 22.901032,27.347578 19.799306,25.410518 C 13.53276,21.496996 12.734557,26.111822 18.778284,31.31358 L 24.556568,36.286876 L 30.278284,25.8239 C 33.425228,20.069264 36,15.054717 36,14.680462 z "
         id="path2254" />
      <path
         style="fill:#669e66"
         d="M 11.577008,38.204672 C 6.2094764,33.408784 5.090909,30.9591 5.090909,24 C 5.090909,2.2978556 37.174678,-3.6809304 43.922062,16.763844 C 46.899956,25.786954 44.887964,32.897254 37.628254,39.005896 C 29.372312,45.952812 19.923437,45.662206 11.577008,38.204672 z M 30.5,25.97014 C 36.665942,14.790472 37.225978,12 33.303748,12 C 31.82081,12 29.011474,15.539345 27.06078,19.865212 C 23.968324,26.723056 23.044518,27.437188 19.847989,25.440922 C 14.059283,21.825814 12.841514,25.509042 18.007409,31.007886 C 20.586824,33.753548 23.215374,35.987034 23.848628,35.971184 C 24.481882,35.955336 27.475,31.454866 30.5,25.97014 z "
         id="path2252" />
      <path
         style="fill:#29cd29"
         d="M 15.550283,40.981238 C 8.8351672,37.215286 6,32.17411 6,24 C 6,15.631035 8.9132156,10.664719 15.959969,7.0207008 C 24.404726,2.6537474 30.847844,3.2887648 37.84655,9.1777872 C 42.983358,13.500128 44,15.794709 44,23.06626 C 44,38.936038 28.88036,48.456978 15.550283,40.981238 z M 31.838632,24 C 37.732188,12.942555 37.927584,12 34.326288,12 C 31.750066,12 29.048844,14.767333 26.400844,20.119418 C 24.191402,24.585096 21.794234,27.285096 21.073804,26.119418 C 20.353374,24.953738 17.848665,24 15.507784,24 C 11.497856,24 11.584182,24.347104 17,30 C 20.1616,33.3 23.35459,36 24.095532,36 C 24.836474,36 28.320868,30.6 31.838632,24 z "
         id="path2250" />
      <path
         style="fill:#01a701"
         d="M 14.553675,40.157664 C 4.3083288,33.746958 3.3739468,20.27372 12.496887,10.5 C 15.614238,7.1602744 18.951355,6 25.439538,6 C 37.20275,6 44,12.51786 44,23.797564 C 44,39.76245 28.068244,48.613984 14.553675,40.157664 z M 32,24 C 37.568006,12.969842 37.748864,12 34.237796,12 C 31.765032,12 29.001386,14.863255 26.400844,20.119418 C 24.191402,24.585096 21.794234,27.285096 21.073804,26.119418 C 20.353374,24.953738 17.848665,24 15.507784,24 C 11.497856,24 11.584182,24.347104 17,30 C 20.1616,33.3 23.467028,36 24.345392,36 C 25.223758,36 28.66833,30.6 32,24 z "
         id="path2248" />
      <path
         style="fill:#018e01"
         d="M 16.616675,41.706434 C 11.224101,38.983198 9.6574594,35.274416 11.638063,29.920336 C 13.11265,25.934148 13.263356,25.958074 17.923067,30.918108 C 20.54887,33.713148 23.427418,36 24.319838,36 C 25.212258,36 28.66833,30.6 32,24 C 37.568006,12.969842 37.748864,12 34.237796,12 C 31.782432,12 29.021816,14.821961 26.509272,19.900265 C 24.26702,24.432258 21.832988,27.07312 20.800266,26.094394 C 19.810119,25.15602 17.2,23.955302 15,23.426132 C 11.781699,22.652028 12.002921,22.418666 16.132002,22.232002 C 19.332412,22.087322 23.689156,19.260746 27.707332,14.72214 L 34.15066,7.4442808 L 39.07533,12.070768 C 45.603396,18.203568 45.799682,29.705692 39.5,36.955994 C 34.386498,42.841122 23.385768,45.124806 16.616675,41.706434 z "
         id="path2246" />
      <path
         style="fill:#077907"
         d="M 20.88509,40.73865 C 21.215756,38.682392 20.520288,35.65 19.339606,34 C 17.565165,31.520222 17.679068,31.433518 19.996456,33.5 C 24.305138,37.342174 25.596072,36.63241 30,28 C 32.244712,23.6 34.56612,20 35.158682,20 C 35.751244,20 35.578248,21.125 34.774246,22.5 C 33.970244,23.875 35.155928,23.386146 37.4091,21.413656 C 41.126938,18.158962 41.621106,18.127851 42.75289,21.077232 C 46.526038,30.909902 39.367928,41.43983 27.641942,43.306172 C 21.24394,44.324496 20.362326,43.989494 20.88509,40.73865 z "
         id="path2244" />
    </g>
  </g>
</svg>
