<?xml version="1.0" encoding="UTF-8" standalone="no"?>
<!-- Created with Inkscape (http://www.inkscape.org/) -->
<svg
   xmlns:dc="http://purl.org/dc/elements/1.1/"
   xmlns:cc="http://web.resource.org/cc/"
   xmlns:rdf="http://www.w3.org/1999/02/22-rdf-syntax-ns#"
   xmlns:svg="http://www.w3.org/2000/svg"
   xmlns="http://www.w3.org/2000/svg"
   xmlns:sodipodi="http://sodipodi.sourceforge.net/DTD/sodipodi-0.dtd"
   xmlns:inkscape="http://www.inkscape.org/namespaces/inkscape"
   width="48px"
   height="48px"
   id="svg2160"
   sodipodi:version="0.32"
   inkscape:version="0.45.1"
   sodipodi:docbase="/home/changfu/.cairo-dock/current_theme"
   sodipodi:docname="bubble-cancel.svg"
   inkscape:output_extension="org.inkscape.output.svg.inkscape">
  <defs
     id="defs2162" />
  <sodipodi:namedview
     id="base"
     pagecolor="#ffffff"
     bordercolor="#666666"
     borderopacity="1.0"
     inkscape:pageopacity="0.0"
     inkscape:pageshadow="2"
     inkscape:zoom="10.610016"
     inkscape:cx="21.524132"
     inkscape:cy="21.177485"
     inkscape:current-layer="layer1"
     showgrid="true"
     inkscape:grid-bbox="true"
     inkscape:document-units="px"
     inkscape:window-width="926"
     inkscape:window-height="690"
     inkscape:window-x="238"
     inkscape:window-y="114" />
  <metadata
     id="metadata2165">
    <rdf:RDF>
      <cc:Work
         rdf:about="">
        <dc:format>image/svg+xml</dc:format>
        <dc:type
           rdf:resource="http://purl.org/dc/dcmitype/StillImage" />
      </cc:Work>
    </rdf:RDF>
  </metadata>
  <g
     id="layer1"
     inkscape:label="Layer 1"
     inkscape:groupmode="layer">
    <g
       id="g2287">
      <path
         style="fill:#95d3f1"
         d="M 14.181818,44.285781 C 6.2169993,39.905665 2.2805064,32.959202 2.2303327,23.195803 C 2.1914714,15.633702 3.450821,12.486241 8.5594405,7.3776221 C 22.786396,-6.8493339 45.873633,2.9651201 45.769667,23.195803 C 45.678744,40.888948 28.663196,52.249565 14.181818,44.285781 z "
         id="path2301" />
      <path
         style="fill:#88b8e3"
         d="M 12.711255,43.082652 C 1.1202433,35.891831 -1.4896506,18.602578 7.4474537,8.2125751 C 11.954878,2.972382 14.338318,2.090909 24,2.090909 C 33.661682,2.090909 36.045122,2.972382 40.552547,8.2125751 C 49.620814,18.755064 46.823531,36.160356 34.931991,43.184862 C 27.200116,47.75219 20.186165,47.719928 12.711255,43.082652 z M 32.571227,39.262511 C 40.30387,35.263806 43.033737,29.363635 37.151197,29.363635 C 34.859679,29.363635 32.34854,30.393128 31.570885,31.651398 C 30.60432,33.215336 29.182968,33.130813 27.078484,31.384248 C 24.726458,29.432238 23.273542,29.432238 20.921515,31.384248 C 18.817032,33.130813 17.395681,33.215336 16.429114,31.651398 C 15.651461,30.393128 13.14032,29.363635 10.848802,29.363635 C 5.1459314,29.363635 7.584878,35.138978 14.985979,39.16033 C 22.339108,43.155617 25.012748,43.171153 32.571227,39.262511 z M 36.420646,13.160427 C 35.072335,9.0971127 24.464948,6.5387656 18.178286,8.760636 C 7.5147369,12.529412 10.082133,15.502673 24,15.502673 C 32.429326,15.502673 36.917044,14.656393 36.420646,13.160427 z "
         id="path2299" />
      <path
         style="fill:#67a6df"
         d="M 12.711255,43.082652 C 1.1202433,35.891831 -1.4896506,18.602578 7.4474537,8.2125751 C 11.954878,2.972382 14.338318,2.090909 24,2.090909 C 33.661682,2.090909 36.045122,2.972382 40.552547,8.2125751 C 49.620814,18.755064 46.823531,36.160356 34.931991,43.184862 C 27.200116,47.75219 20.186165,47.719928 12.711255,43.082652 z M 35.705762,37.932551 C 42.63218,32.484231 43.433782,24.999999 37.090909,24.999999 C 34.690909,24.999999 32.727273,26.346872 32.727273,27.993052 C 32.727273,30.068539 30.051801,30.915951 24,30.757265 C 18.530938,30.613861 15.272727,29.496445 15.272727,27.764214 C 15.272727,26.243895 13.309091,24.999999 10.909091,24.999999 C 4.566218,24.999999 5.3678197,32.484231 12.294237,37.932551 C 15.456068,40.419647 20.723661,42.454544 24,42.454544 C 27.276338,42.454544 32.543932,40.419647 35.705762,37.932551 z M 17.410787,19.492728 C 13.826926,15.17444 16.356258,12.645107 20.674547,16.228968 C 23.355864,18.454264 24.644136,18.454264 27.325453,16.228968 C 31.643743,12.645107 34.173074,15.17444 30.589213,19.492728 C 27.598562,23.096243 28.287026,23.547868 33.639737,21.493842 C 37.722919,19.926978 38.168967,13.859877 34.472727,10.163636 C 31.085529,6.7764372 16.914472,6.7764372 13.527273,10.163636 C 10.109101,13.581807 10.17132,19.975029 13.636364,21.373205 C 18.82692,23.467641 20.158915,22.804019 17.410787,19.492728 z "
         id="path2297" />
      <path
         style="fill:#9a9c9d"
         d="M 12.711255,43.082652 C 1.1202433,35.891831 -1.4896506,18.602578 7.4474537,8.2125751 C 11.954878,2.972382 14.338318,2.090909 24,2.090909 C 33.661682,2.090909 36.045122,2.972382 40.552547,8.2125751 C 49.620814,18.755064 46.823531,36.160356 34.931991,43.184862 C 27.200116,47.75219 20.186165,47.719928 12.711255,43.082652 z M 35.538247,38.06432 C 46.950578,29.087378 44.938268,12.358382 31.685932,6.0387843 C 24.488236,2.6064426 23.511764,2.6064426 16.314068,6.0387843 C 7.6251087,10.18226 3.5188414,18.368614 5.5319559,27.534264 C 7.2206287,35.22274 16.17202,42.454544 24,42.454544 C 27.276338,42.454544 32.468551,40.478942 35.538247,38.06432 z M 15.272727,29.799999 C 15.272727,28.839999 16.409298,26.917974 17.79844,25.528832 C 19.711512,23.61576 19.636097,22.174062 17.48753,19.585197 C 13.845504,15.196825 16.307219,12.604408 20.674547,16.228968 C 23.355864,18.454264 24.644136,18.454264 27.325453,16.228968 C 31.643743,12.645107 34.173074,15.17444 30.589213,19.492728 C 28.363918,22.174045 28.363918,23.462317 30.589213,26.143634 C 34.213774,30.510962 31.621355,32.972677 27.232983,29.330651 C 24.644119,27.182083 23.202421,27.106669 21.289349,29.019741 C 18.372404,31.936686 15.272727,32.338664 15.272727,29.799999 z "
         id="path2295" />
      <path
         style="fill:#7392a4"
         d="M 12.545407,42.279756 C 6.3005662,38.642471 1.6439428,27.460293 3.1130378,19.629344 C 7.4463951,-3.4694354 40.553605,-3.4694354 44.886962,19.629344 C 46.401327,27.701607 41.551813,38.899468 35.029944,42.389866 C 29.705267,45.239545 17.524648,45.179896 12.545407,42.279756 z M 35.538247,38.06432 C 46.950578,29.087378 44.938268,12.358382 31.685932,6.0387843 C 24.488236,2.6064426 23.511764,2.6064426 16.314068,6.0387843 C 7.6251087,10.18226 3.5188414,18.368614 5.5319559,27.534264 C 7.2206287,35.22274 16.17202,42.454544 24,42.454544 C 27.276338,42.454544 32.468551,40.478942 35.538247,38.06432 z M 15.272727,29.799999 C 15.272727,28.839999 16.409298,26.917974 17.79844,25.528832 C 19.711512,23.61576 19.636097,22.174062 17.48753,19.585197 C 13.845504,15.196825 16.307219,12.604408 20.674547,16.228968 C 23.355864,18.454264 24.644136,18.454264 27.325453,16.228968 C 31.643743,12.645107 34.173074,15.17444 30.589213,19.492728 C 28.363918,22.174045 28.363918,23.462317 30.589213,26.143634 C 34.213774,30.510962 31.621355,32.972677 27.232983,29.330651 C 24.644119,27.182083 23.202421,27.106669 21.289349,29.019741 C 18.372404,31.936686 15.272727,32.338664 15.272727,29.799999 z "
         id="path2293" />
      <path
         style="fill:#5e7896"
         d="M 20.181818,43.132378 C 22.281818,42.583592 25.718182,42.583592 27.818182,43.132378 C 29.918182,43.681166 28.2,44.130174 24,44.130174 C 19.8,44.130174 18.081818,43.681166 20.181818,43.132378 z M 15.272727,29.799999 C 15.272727,28.839999 16.409298,26.917974 17.79844,25.528832 C 19.711512,23.61576 19.646711,22.186851 17.531288,19.637923 C 14.302217,15.747131 17.519383,15.028474 21.289349,18.798439 C 23.202421,20.711511 24.730416,20.579204 27.588761,18.252985 C 30.952844,15.515178 31.195621,15.62628 29.825407,19.276541 C 28.980026,21.528639 29.427017,24.743273 30.818723,26.420175 C 34.269329,30.577902 31.471828,32.848579 27.232983,29.330651 C 24.644119,27.182083 23.202421,27.106669 21.289349,29.019741 C 18.372404,31.936686 15.272727,32.338664 15.272727,29.799999 z M 2.6071608,23.90909 C 2.562696,20.30909 3.0153024,18.572222 3.6129528,20.049384 C 4.2106032,21.526546 4.2469835,24.472001 3.6937979,26.594838 C 3.1406123,28.717677 2.6516256,27.50909 2.6071608,23.90909 z M 44.061707,23.90909 C 44.017241,20.30909 44.469849,18.572222 45.067499,20.049384 C 45.665149,21.526546 45.701529,24.472001 45.148344,26.594838 C 44.595157,28.717677 44.10617,27.50909 44.061707,23.90909 z M 4.3636364,14.7927 C 4.3636364,13.578685 6.5727273,10.715048 9.2727273,8.4290636 L 14.181818,4.2727271 L 9.841433,9.7272724 C 7.4542211,12.727272 5.2451302,15.590909 4.9323421,16.090909 C 4.6195538,16.590908 4.3636364,16.006714 4.3636364,14.7927 z M 38.412986,10.059038 L 34.280518,4.2727271 L 39.382682,9.1212118 C 42.188873,11.787878 44.048485,14.391718 43.515151,14.907523 C 42.981818,15.423327 40.685843,13.241509 38.412986,10.059038 z "
         id="path2291" />
      <path
         style="fill:#556169"
         d="M 21.272727,43.191385 C 22.772727,42.586123 25.227273,42.586123 26.727273,43.191385 C 28.227273,43.79665 27,44.291864 24,44.291864 C 21,44.291864 19.772727,43.79665 21.272727,43.191385 z M 15.272727,29.630788 C 15.272727,28.57772 16.757561,26.483819 18.572359,24.97767 C 21.267627,22.740796 21.367533,21.5929 19.117814,18.710518 C 16.670755,15.575303 16.789402,15.515726 20.181818,18.176242 C 23.358857,20.667848 24.641143,20.685517 27.818182,18.281467 C 31.052891,15.833778 31.224151,15.855084 28.938881,18.420889 C 26.776802,20.848381 26.954585,22.237575 29.834594,25.419949 C 34.158833,30.198178 32.067028,33.342551 27.232983,29.330651 C 24.644119,27.182083 23.202421,27.106669 21.289349,29.019741 C 18.296728,32.012362 15.272727,32.319479 15.272727,29.630788 z M 2.5263157,22.818181 C 2.5263157,19.818181 3.0215311,18.590908 3.6267943,20.090908 C 4.2320575,21.590908 4.2320575,24.045454 3.6267943,25.545454 C 3.0215311,27.045454 2.5263157,25.818181 2.5263157,22.818181 z M 43.980862,22.818181 C 43.980862,19.818181 44.476076,18.590908 45.08134,20.090908 C 45.686603,21.590908 45.686603,24.045454 45.08134,25.545454 C 44.476076,27.045454 43.980862,25.818181 43.980862,22.818181 z "
         id="path2289" />
    </g>
  </g>
</svg>
