<?xml version="1.0" encoding="UTF-8" standalone="no"?>
<!-- Created with Inkscape (http://www.inkscape.org/) -->
<svg
   xmlns:dc="http://purl.org/dc/elements/1.1/"
   xmlns:cc="http://creativecommons.org/ns#"
   xmlns:rdf="http://www.w3.org/1999/02/22-rdf-syntax-ns#"
   xmlns:svg="http://www.w3.org/2000/svg"
   xmlns="http://www.w3.org/2000/svg"
   xmlns:sodipodi="http://sodipodi.sourceforge.net/DTD/sodipodi-0.dtd"
   xmlns:inkscape="http://www.inkscape.org/namespaces/inkscape"
   width="128"
   height="128"
   id="svg2160"
   sodipodi:version="0.32"
   inkscape:version="0.46"
   sodipodi:docbase="/home/changfu/.cairo-dock/current_theme/icons"
   sodipodi:docname="neon_duo.svg"
   inkscape:output_extension="org.inkscape.output.svg.inkscape"
   version="1.0">
  <sodipodi:namedview
     id="base"
     pagecolor="#ffffff"
     bordercolor="#666666"
     borderopacity="1.0"
     inkscape:pageopacity="0.0"
     inkscape:pageshadow="2"
     inkscape:zoom="3.2656155"
     inkscape:cx="66.31792"
     inkscape:cy="1.4973592"
     inkscape:current-layer="layer1"
     showgrid="true"
     inkscape:grid-bbox="true"
     inkscape:document-units="px"
     inkscape:window-width="1438"
     inkscape:window-height="804"
     inkscape:window-x="1"
     inkscape:window-y="45"
     width="128px"
     height="128px" />
  <defs
     id="defs2162">
    <inkscape:perspective
       id="perspective150"
       inkscape:persp3d-origin="64 : 42.666667 : 1"
       inkscape:vp_z="128 : 64 : 1"
       inkscape:vp_y="0 : 1000 : 0"
       inkscape:vp_x="0 : 64 : 1"
       sodipodi:type="inkscape:persp3d" />
    <marker
       refY="0"
       refX="0"
       style="overflow:visible"
       orient="auto"
       inkscape:stockid="Dot_s"
       id="Dot_s">
      <path
         style="fill-rule:evenodd;stroke:#000000;stroke-width:1pt;marker-start:none;marker-end:none"
         transform="matrix(0.2,0,0,0.2,1.48,0.2)"
         d="M -2.5,-1 C -2.5,1.76 -4.74,4 -7.5,4 C -10.26,4 -12.5,1.76 -12.5,-1 C -12.5,-3.76 -10.26,-6 -7.5,-6 C -4.74,-6 -2.5,-3.76 -2.5,-1 z "
         id="path7261" />
    </marker>
    <marker
       refY="0"
       refX="0"
       style="overflow:visible"
       orient="auto"
       inkscape:stockid="Dot_m"
       id="Dot_m">
      <path
         style="fill-rule:evenodd;stroke:#000000;stroke-width:1pt;marker-start:none;marker-end:none"
         transform="matrix(0.4,0,0,0.4,2.96,0.4)"
         d="M -2.5,-1 C -2.5,1.76 -4.74,4 -7.5,4 C -10.26,4 -12.5,1.76 -12.5,-1 C -12.5,-3.76 -10.26,-6 -7.5,-6 C -4.74,-6 -2.5,-3.76 -2.5,-1 z "
         id="path7258" />
    </marker>
    <marker
       refY="0"
       refX="0"
       style="overflow:visible"
       orient="auto"
       inkscape:stockid="Dot_l"
       id="Dot_l">
      <path
         style="fill-rule:evenodd;stroke:#000000;stroke-width:1pt;marker-start:none;marker-end:none"
         transform="matrix(0.8,0,0,0.8,5.92,0.8)"
         d="M -2.5,-1 C -2.5,1.76 -4.74,4 -7.5,4 C -10.26,4 -12.5,1.76 -12.5,-1 C -12.5,-3.76 -10.26,-6 -7.5,-6 C -4.74,-6 -2.5,-3.76 -2.5,-1 z "
         id="path7255" />
    </marker>
    <marker
       refY="0"
       refX="0"
       style="overflow:visible"
       orient="auto"
       inkscape:stockid="DistanceOut"
       id="DistanceOut">
      <g
         id="g7249">
        <path
           style="fill:none;stroke:#ffffff;stroke-width:1.14999998;stroke-linecap:square"
           id="path2316"
           d="M 0,0 L -2,0" />
        <path
           style="fill:#000000;fill-rule:evenodd;stroke:none"
           id="path2312"
           d="M 0,0 L -13,4 L -9,0 L -13,-4 L 0,0 z " />
        <path
           style="fill:none;stroke:#000000;stroke-width:1;stroke-linecap:square"
           id="path2314"
           d="M 0,-4 L 0,40" />
      </g>
    </marker>
    <marker
       refY="0"
       refX="0"
       style="overflow:visible"
       orient="auto"
       inkscape:stockid="DistanceIn"
       id="DistanceIn">
      <g
         id="g2300">
        <path
           style="fill:none;stroke:#ffffff;stroke-width:1.14999998;stroke-linecap:square"
           id="path2306"
           d="M 0,0 L 2,0" />
        <path
           style="fill:#000000;fill-rule:evenodd;stroke:none"
           id="path2302"
           d="M 0,0 L 13,4 L 9,0 L 13,-4 L 0,0 z " />
        <path
           style="fill:none;stroke:#000000;stroke-width:1;stroke-linecap:square"
           id="path2304"
           d="M 0,-4 L 0,40" />
      </g>
    </marker>
    <marker
       refY="0"
       refX="0"
       style="overflow:visible"
       orient="auto"
       inkscape:stockid="Tail"
       id="Tail">
      <g
         transform="scale(-1.2,-1.2)"
         id="g7229">
        <path
           style="fill:none;fill-rule:evenodd;stroke:#000000;stroke-width:0.80000001;stroke-linecap:round;marker-start:none;marker-end:none"
           d="M -3.8048674,-3.9585227 L 0.54352094,0"
           id="path7231" />
        <path
           style="fill:none;fill-rule:evenodd;stroke:#000000;stroke-width:0.80000001;stroke-linecap:round;marker-start:none;marker-end:none"
           d="M -1.2866832,-3.9585227 L 3.0617053,0"
           id="path7233" />
        <path
           style="fill:none;fill-rule:evenodd;stroke:#000000;stroke-width:0.80000001;stroke-linecap:round;marker-start:none;marker-end:none"
           d="M 1.3053582,-3.9585227 L 5.6537466,0"
           id="path7235" />
        <path
           style="fill:none;fill-rule:evenodd;stroke:#000000;stroke-width:0.80000001;stroke-linecap:round;marker-start:none;marker-end:none"
           d="M -3.8048674,4.1775838 L 0.54352094,0.21974226"
           id="path7237" />
        <path
           style="fill:none;fill-rule:evenodd;stroke:#000000;stroke-width:0.80000001;stroke-linecap:round;marker-start:none;marker-end:none"
           d="M -1.2866832,4.1775838 L 3.0617053,0.21974226"
           id="path7239" />
        <path
           style="fill:none;fill-rule:evenodd;stroke:#000000;stroke-width:0.80000001;stroke-linecap:round;marker-start:none;marker-end:none"
           d="M 1.3053582,4.1775838 L 5.6537466,0.21974226"
           id="path7241" />
      </g>
    </marker>
    <marker
       refY="0"
       refX="0"
       style="overflow:visible"
       orient="auto"
       inkscape:stockid="Arrow2Send"
       id="Arrow2Send">
      <path
         style="font-size:12px;fill-rule:evenodd;stroke-width:0.625;stroke-linejoin:round"
         transform="matrix(-0.3,0,0,-0.3,0.69,0)"
         d="M 8.7185878,4.0337352 L -2.2072895,0.016013256 L 8.7185884,-4.0017078 C 6.97309,-1.6296469 6.9831476,1.6157441 8.7185878,4.0337352 z "
         id="path7226" />
    </marker>
    <marker
       refY="0"
       refX="0"
       style="overflow:visible"
       orient="auto"
       inkscape:stockid="Arrow2Sstart"
       id="Arrow2Sstart">
      <path
         style="font-size:12px;fill-rule:evenodd;stroke-width:0.625;stroke-linejoin:round"
         transform="matrix(0.3,0,0,0.3,-0.69,0)"
         d="M 8.7185878,4.0337352 L -2.2072895,0.016013256 L 8.7185884,-4.0017078 C 6.97309,-1.6296469 6.9831476,1.6157441 8.7185878,4.0337352 z "
         id="path7223" />
    </marker>
    <marker
       refY="0"
       refX="0"
       style="overflow:visible"
       orient="auto"
       inkscape:stockid="Arrow2Mend"
       id="Arrow2Mend">
      <path
         style="font-size:12px;fill-rule:evenodd;stroke-width:0.625;stroke-linejoin:round"
         transform="scale(-0.6,-0.6)"
         d="M 8.7185878,4.0337352 L -2.2072895,0.016013256 L 8.7185884,-4.0017078 C 6.97309,-1.6296469 6.9831476,1.6157441 8.7185878,4.0337352 z "
         id="path7220" />
    </marker>
    <marker
       refY="0"
       refX="0"
       style="overflow:visible"
       orient="auto"
       inkscape:stockid="Arrow2Mstart"
       id="Arrow2Mstart">
      <path
         style="font-size:12px;fill-rule:evenodd;stroke-width:0.625;stroke-linejoin:round"
         transform="scale(0.6,0.6)"
         d="M 8.7185878,4.0337352 L -2.2072895,0.016013256 L 8.7185884,-4.0017078 C 6.97309,-1.6296469 6.9831476,1.6157441 8.7185878,4.0337352 z "
         id="path7217" />
    </marker>
    <marker
       refY="0"
       refX="0"
       style="overflow:visible"
       orient="auto"
       inkscape:stockid="Arrow2Lend"
       id="Arrow2Lend">
      <path
         style="font-size:12px;fill-rule:evenodd;stroke-width:0.625;stroke-linejoin:round"
         transform="matrix(-1.1,0,0,-1.1,-1.1,0)"
         d="M 8.7185878,4.0337352 L -2.2072895,0.016013256 L 8.7185884,-4.0017078 C 6.97309,-1.6296469 6.9831476,1.6157441 8.7185878,4.0337352 z "
         id="path7214" />
    </marker>
    <marker
       refY="0"
       refX="0"
       style="overflow:visible"
       orient="auto"
       inkscape:stockid="Arrow2Lstart"
       id="Arrow2Lstart">
      <path
         style="font-size:12px;fill-rule:evenodd;stroke-width:0.625;stroke-linejoin:round"
         transform="matrix(1.1,0,0,1.1,1.1,0)"
         d="M 8.7185878,4.0337352 L -2.2072895,0.016013256 L 8.7185884,-4.0017078 C 6.97309,-1.6296469 6.9831476,1.6157441 8.7185878,4.0337352 z "
         id="path7211" />
    </marker>
    <marker
       refY="0"
       refX="0"
       style="overflow:visible"
       orient="auto"
       inkscape:stockid="Arrow1Send"
       id="Arrow1Send">
      <path
         style="fill-rule:evenodd;stroke:#000000;stroke-width:1pt;marker-start:none"
         transform="matrix(-0.2,0,0,-0.2,-1.2,0)"
         d="M 0,0 L 5,-5 L -12.5,0 L 5,5 L 0,0 z "
         id="path7208" />
    </marker>
    <marker
       refY="0"
       refX="0"
       style="overflow:visible"
       orient="auto"
       inkscape:stockid="Arrow1Sstart"
       id="Arrow1Sstart">
      <path
         style="fill-rule:evenodd;stroke:#000000;stroke-width:1pt;marker-start:none"
         transform="matrix(0.2,0,0,0.2,1.2,0)"
         d="M 0,0 L 5,-5 L -12.5,0 L 5,5 L 0,0 z "
         id="path7205" />
    </marker>
    <marker
       refY="0"
       refX="0"
       style="overflow:visible"
       orient="auto"
       inkscape:stockid="Arrow1Mend"
       id="Arrow1Mend">
      <path
         style="fill-rule:evenodd;stroke:#000000;stroke-width:1pt;marker-start:none"
         transform="matrix(-0.4,0,0,-0.4,-4,0)"
         d="M 0,0 L 5,-5 L -12.5,0 L 5,5 L 0,0 z "
         id="path7202" />
    </marker>
    <marker
       refY="0"
       refX="0"
       style="overflow:visible"
       orient="auto"
       inkscape:stockid="Arrow1Mstart"
       id="Arrow1Mstart">
      <path
         style="fill-rule:evenodd;stroke:#000000;stroke-width:1pt;marker-start:none"
         transform="matrix(0.4,0,0,0.4,4,0)"
         d="M 0,0 L 5,-5 L -12.5,0 L 5,5 L 0,0 z "
         id="path7199" />
    </marker>
    <filter
       id="filter8319"
       height="1.3122384"
       y="-0.1561192"
       width="1.0871567"
       x="-0.043578356"
       inkscape:collect="always">
      <feGaussianBlur
         id="feGaussianBlur8321"
         stdDeviation="2.1563951"
         inkscape:collect="always" />
    </filter>
    <filter
       id="filter8335"
       height="1.3127797"
       y="-0.15638987"
       width="1.0871268"
       x="-0.043563421"
       inkscape:collect="always">
      <feGaussianBlur
         id="feGaussianBlur8337"
         stdDeviation="2.1223322"
         inkscape:collect="always" />
    </filter>
    <marker
       id="marker2515"
       inkscape:stockid="Arrow1Mstart"
       orient="auto"
       style="overflow:visible"
       refX="0"
       refY="0">
      <path
         id="path2517"
         d="M 0,0 L 5,-5 L -12.5,0 L 5,5 L 0,0 z "
         transform="matrix(0.4,0,0,0.4,4,0)"
         style="fill-rule:evenodd;stroke:#000000;stroke-width:1pt;marker-start:none" />
    </marker>
    <marker
       id="marker2511"
       inkscape:stockid="Arrow1Mend"
       orient="auto"
       style="overflow:visible"
       refX="0"
       refY="0">
      <path
         id="path2513"
         d="M 0,0 L 5,-5 L -12.5,0 L 5,5 L 0,0 z "
         transform="matrix(-0.4,0,0,-0.4,-4,0)"
         style="fill-rule:evenodd;stroke:#000000;stroke-width:1pt;marker-start:none" />
    </marker>
    <marker
       id="marker2507"
       inkscape:stockid="Arrow1Sstart"
       orient="auto"
       style="overflow:visible"
       refX="0"
       refY="0">
      <path
         id="path2509"
         d="M 0,0 L 5,-5 L -12.5,0 L 5,5 L 0,0 z "
         transform="matrix(0.2,0,0,0.2,1.2,0)"
         style="fill-rule:evenodd;stroke:#000000;stroke-width:1pt;marker-start:none" />
    </marker>
    <marker
       id="marker2503"
       inkscape:stockid="Arrow1Send"
       orient="auto"
       style="overflow:visible"
       refX="0"
       refY="0">
      <path
         id="path2505"
         d="M 0,0 L 5,-5 L -12.5,0 L 5,5 L 0,0 z "
         transform="matrix(-0.2,0,0,-0.2,-1.2,0)"
         style="fill-rule:evenodd;stroke:#000000;stroke-width:1pt;marker-start:none" />
    </marker>
    <marker
       id="marker2499"
       inkscape:stockid="Arrow2Lstart"
       orient="auto"
       style="overflow:visible"
       refX="0"
       refY="0">
      <path
         id="path2501"
         d="M 8.7185878,4.0337352 L -2.2072895,0.016013256 L 8.7185884,-4.0017078 C 6.97309,-1.6296469 6.9831476,1.6157441 8.7185878,4.0337352 z "
         transform="matrix(1.1,0,0,1.1,1.1,0)"
         style="font-size:12px;fill-rule:evenodd;stroke-width:0.625;stroke-linejoin:round" />
    </marker>
    <marker
       id="marker2495"
       inkscape:stockid="Arrow2Lend"
       orient="auto"
       style="overflow:visible"
       refX="0"
       refY="0">
      <path
         id="path2497"
         d="M 8.7185878,4.0337352 L -2.2072895,0.016013256 L 8.7185884,-4.0017078 C 6.97309,-1.6296469 6.9831476,1.6157441 8.7185878,4.0337352 z "
         transform="matrix(-1.1,0,0,-1.1,-1.1,0)"
         style="font-size:12px;fill-rule:evenodd;stroke-width:0.625;stroke-linejoin:round" />
    </marker>
    <marker
       id="marker2491"
       inkscape:stockid="Arrow2Mstart"
       orient="auto"
       style="overflow:visible"
       refX="0"
       refY="0">
      <path
         id="path2493"
         d="M 8.7185878,4.0337352 L -2.2072895,0.016013256 L 8.7185884,-4.0017078 C 6.97309,-1.6296469 6.9831476,1.6157441 8.7185878,4.0337352 z "
         transform="scale(0.6,0.6)"
         style="font-size:12px;fill-rule:evenodd;stroke-width:0.625;stroke-linejoin:round" />
    </marker>
    <marker
       id="marker2487"
       inkscape:stockid="Arrow2Mend"
       orient="auto"
       style="overflow:visible"
       refX="0"
       refY="0">
      <path
         id="path2489"
         d="M 8.7185878,4.0337352 L -2.2072895,0.016013256 L 8.7185884,-4.0017078 C 6.97309,-1.6296469 6.9831476,1.6157441 8.7185878,4.0337352 z "
         transform="scale(-0.6,-0.6)"
         style="font-size:12px;fill-rule:evenodd;stroke-width:0.625;stroke-linejoin:round" />
    </marker>
    <marker
       id="marker2483"
       inkscape:stockid="Arrow2Sstart"
       orient="auto"
       style="overflow:visible"
       refX="0"
       refY="0">
      <path
         id="path2485"
         d="M 8.7185878,4.0337352 L -2.2072895,0.016013256 L 8.7185884,-4.0017078 C 6.97309,-1.6296469 6.9831476,1.6157441 8.7185878,4.0337352 z "
         transform="matrix(0.3,0,0,0.3,-0.69,0)"
         style="font-size:12px;fill-rule:evenodd;stroke-width:0.625;stroke-linejoin:round" />
    </marker>
    <marker
       id="marker2479"
       inkscape:stockid="Arrow2Send"
       orient="auto"
       style="overflow:visible"
       refX="0"
       refY="0">
      <path
         id="path2481"
         d="M 8.7185878,4.0337352 L -2.2072895,0.016013256 L 8.7185884,-4.0017078 C 6.97309,-1.6296469 6.9831476,1.6157441 8.7185878,4.0337352 z "
         transform="matrix(-0.3,0,0,-0.3,0.69,0)"
         style="font-size:12px;fill-rule:evenodd;stroke-width:0.625;stroke-linejoin:round" />
    </marker>
    <marker
       id="marker2463"
       inkscape:stockid="Tail"
       orient="auto"
       style="overflow:visible"
       refX="0"
       refY="0">
      <g
         id="g2465"
         transform="scale(-1.2,-1.2)">
        <path
           id="path2467"
           d="M -3.8048674,-3.9585227 L 0.54352094,0"
           style="fill:none;fill-rule:evenodd;stroke:#000000;stroke-width:0.80000001;stroke-linecap:round;marker-start:none;marker-end:none" />
        <path
           id="path2469"
           d="M -1.2866832,-3.9585227 L 3.0617053,0"
           style="fill:none;fill-rule:evenodd;stroke:#000000;stroke-width:0.80000001;stroke-linecap:round;marker-start:none;marker-end:none" />
        <path
           id="path2471"
           d="M 1.3053582,-3.9585227 L 5.6537466,0"
           style="fill:none;fill-rule:evenodd;stroke:#000000;stroke-width:0.80000001;stroke-linecap:round;marker-start:none;marker-end:none" />
        <path
           id="path2473"
           d="M -3.8048674,4.1775838 L 0.54352094,0.21974226"
           style="fill:none;fill-rule:evenodd;stroke:#000000;stroke-width:0.80000001;stroke-linecap:round;marker-start:none;marker-end:none" />
        <path
           id="path2475"
           d="M -1.2866832,4.1775838 L 3.0617053,0.21974226"
           style="fill:none;fill-rule:evenodd;stroke:#000000;stroke-width:0.80000001;stroke-linecap:round;marker-start:none;marker-end:none" />
        <path
           id="path2477"
           d="M 1.3053582,4.1775838 L 5.6537466,0.21974226"
           style="fill:none;fill-rule:evenodd;stroke:#000000;stroke-width:0.80000001;stroke-linecap:round;marker-start:none;marker-end:none" />
      </g>
    </marker>
    <marker
       id="marker2453"
       inkscape:stockid="DistanceIn"
       orient="auto"
       style="overflow:visible"
       refX="0"
       refY="0">
      <g
         id="g2455">
        <path
           d="M 0,0 L 2,0"
           id="path2457"
           style="fill:none;stroke:#ffffff;stroke-width:1.14999998;stroke-linecap:square" />
        <path
           d="M 0,0 L 13,4 L 9,0 L 13,-4 L 0,0 z "
           id="path2459"
           style="fill:#000000;fill-rule:evenodd;stroke:none" />
        <path
           d="M 0,-4 L 0,40"
           id="path2461"
           style="fill:none;stroke:#000000;stroke-width:1;stroke-linecap:square" />
      </g>
    </marker>
    <marker
       id="marker2443"
       inkscape:stockid="DistanceOut"
       orient="auto"
       style="overflow:visible"
       refX="0"
       refY="0">
      <g
         id="g2445">
        <path
           d="M 0,0 L -2,0"
           id="path2447"
           style="fill:none;stroke:#ffffff;stroke-width:1.14999998;stroke-linecap:square" />
        <path
           d="M 0,0 L -13,4 L -9,0 L -13,-4 L 0,0 z "
           id="path2449"
           style="fill:#000000;fill-rule:evenodd;stroke:none" />
        <path
           d="M 0,-4 L 0,40"
           id="path2451"
           style="fill:none;stroke:#000000;stroke-width:1;stroke-linecap:square" />
      </g>
    </marker>
    <marker
       id="marker2439"
       inkscape:stockid="Dot_l"
       orient="auto"
       style="overflow:visible"
       refX="0"
       refY="0">
      <path
         id="path2441"
         d="M -2.5,-1 C -2.5,1.76 -4.74,4 -7.5,4 C -10.26,4 -12.5,1.76 -12.5,-1 C -12.5,-3.76 -10.26,-6 -7.5,-6 C -4.74,-6 -2.5,-3.76 -2.5,-1 z "
         transform="matrix(0.8,0,0,0.8,5.92,0.8)"
         style="fill-rule:evenodd;stroke:#000000;stroke-width:1pt;marker-start:none;marker-end:none" />
    </marker>
    <marker
       id="marker2435"
       inkscape:stockid="Dot_m"
       orient="auto"
       style="overflow:visible"
       refX="0"
       refY="0">
      <path
         id="path2437"
         d="M -2.5,-1 C -2.5,1.76 -4.74,4 -7.5,4 C -10.26,4 -12.5,1.76 -12.5,-1 C -12.5,-3.76 -10.26,-6 -7.5,-6 C -4.74,-6 -2.5,-3.76 -2.5,-1 z "
         transform="matrix(0.4,0,0,0.4,2.96,0.4)"
         style="fill-rule:evenodd;stroke:#000000;stroke-width:1pt;marker-start:none;marker-end:none" />
    </marker>
    <marker
       id="marker2431"
       inkscape:stockid="Dot_s"
       orient="auto"
       style="overflow:visible"
       refX="0"
       refY="0">
      <path
         id="path2433"
         d="M -2.5,-1 C -2.5,1.76 -4.74,4 -7.5,4 C -10.26,4 -12.5,1.76 -12.5,-1 C -12.5,-3.76 -10.26,-6 -7.5,-6 C -4.74,-6 -2.5,-3.76 -2.5,-1 z "
         transform="matrix(0.2,0,0,0.2,1.48,0.2)"
         style="fill-rule:evenodd;stroke:#000000;stroke-width:1pt;marker-start:none;marker-end:none" />
    </marker>
    <marker
       id="marker2683"
       inkscape:stockid="Arrow1Mstart"
       orient="auto"
       style="overflow:visible"
       refX="0"
       refY="0">
      <path
         id="path2685"
         d="M 0,0 L 5,-5 L -12.5,0 L 5,5 L 0,0 z "
         transform="matrix(0.4,0,0,0.4,4,0)"
         style="fill-rule:evenodd;stroke:#000000;stroke-width:1pt;marker-start:none" />
    </marker>
    <marker
       id="marker2679"
       inkscape:stockid="Arrow1Mend"
       orient="auto"
       style="overflow:visible"
       refX="0"
       refY="0">
      <path
         id="path2681"
         d="M 0,0 L 5,-5 L -12.5,0 L 5,5 L 0,0 z "
         transform="matrix(-0.4,0,0,-0.4,-4,0)"
         style="fill-rule:evenodd;stroke:#000000;stroke-width:1pt;marker-start:none" />
    </marker>
    <marker
       id="marker2675"
       inkscape:stockid="Arrow1Sstart"
       orient="auto"
       style="overflow:visible"
       refX="0"
       refY="0">
      <path
         id="path2677"
         d="M 0,0 L 5,-5 L -12.5,0 L 5,5 L 0,0 z "
         transform="matrix(0.2,0,0,0.2,1.2,0)"
         style="fill-rule:evenodd;stroke:#000000;stroke-width:1pt;marker-start:none" />
    </marker>
    <marker
       id="marker2671"
       inkscape:stockid="Arrow1Send"
       orient="auto"
       style="overflow:visible"
       refX="0"
       refY="0">
      <path
         id="path2673"
         d="M 0,0 L 5,-5 L -12.5,0 L 5,5 L 0,0 z "
         transform="matrix(-0.2,0,0,-0.2,-1.2,0)"
         style="fill-rule:evenodd;stroke:#000000;stroke-width:1pt;marker-start:none" />
    </marker>
    <marker
       id="marker2667"
       inkscape:stockid="Arrow2Lstart"
       orient="auto"
       style="overflow:visible"
       refX="0"
       refY="0">
      <path
         id="path2669"
         d="M 8.7185878,4.0337352 L -2.2072895,0.016013256 L 8.7185884,-4.0017078 C 6.97309,-1.6296469 6.9831476,1.6157441 8.7185878,4.0337352 z "
         transform="matrix(1.1,0,0,1.1,1.1,0)"
         style="font-size:12px;fill-rule:evenodd;stroke-width:0.625;stroke-linejoin:round" />
    </marker>
    <marker
       id="marker2663"
       inkscape:stockid="Arrow2Lend"
       orient="auto"
       style="overflow:visible"
       refX="0"
       refY="0">
      <path
         id="path2665"
         d="M 8.7185878,4.0337352 L -2.2072895,0.016013256 L 8.7185884,-4.0017078 C 6.97309,-1.6296469 6.9831476,1.6157441 8.7185878,4.0337352 z "
         transform="matrix(-1.1,0,0,-1.1,-1.1,0)"
         style="font-size:12px;fill-rule:evenodd;stroke-width:0.625;stroke-linejoin:round" />
    </marker>
    <marker
       id="marker2659"
       inkscape:stockid="Arrow2Mstart"
       orient="auto"
       style="overflow:visible"
       refX="0"
       refY="0">
      <path
         id="path2661"
         d="M 8.7185878,4.0337352 L -2.2072895,0.016013256 L 8.7185884,-4.0017078 C 6.97309,-1.6296469 6.9831476,1.6157441 8.7185878,4.0337352 z "
         transform="scale(0.6,0.6)"
         style="font-size:12px;fill-rule:evenodd;stroke-width:0.625;stroke-linejoin:round" />
    </marker>
    <marker
       id="marker2655"
       inkscape:stockid="Arrow2Mend"
       orient="auto"
       style="overflow:visible"
       refX="0"
       refY="0">
      <path
         id="path2657"
         d="M 8.7185878,4.0337352 L -2.2072895,0.016013256 L 8.7185884,-4.0017078 C 6.97309,-1.6296469 6.9831476,1.6157441 8.7185878,4.0337352 z "
         transform="scale(-0.6,-0.6)"
         style="font-size:12px;fill-rule:evenodd;stroke-width:0.625;stroke-linejoin:round" />
    </marker>
    <marker
       id="marker2651"
       inkscape:stockid="Arrow2Sstart"
       orient="auto"
       style="overflow:visible"
       refX="0"
       refY="0">
      <path
         id="path2653"
         d="M 8.7185878,4.0337352 L -2.2072895,0.016013256 L 8.7185884,-4.0017078 C 6.97309,-1.6296469 6.9831476,1.6157441 8.7185878,4.0337352 z "
         transform="matrix(0.3,0,0,0.3,-0.69,0)"
         style="font-size:12px;fill-rule:evenodd;stroke-width:0.625;stroke-linejoin:round" />
    </marker>
    <marker
       id="marker2647"
       inkscape:stockid="Arrow2Send"
       orient="auto"
       style="overflow:visible"
       refX="0"
       refY="0">
      <path
         id="path2649"
         d="M 8.7185878,4.0337352 L -2.2072895,0.016013256 L 8.7185884,-4.0017078 C 6.97309,-1.6296469 6.9831476,1.6157441 8.7185878,4.0337352 z "
         transform="matrix(-0.3,0,0,-0.3,0.69,0)"
         style="font-size:12px;fill-rule:evenodd;stroke-width:0.625;stroke-linejoin:round" />
    </marker>
    <marker
       id="marker2631"
       inkscape:stockid="Tail"
       orient="auto"
       style="overflow:visible"
       refX="0"
       refY="0">
      <g
         id="g2633"
         transform="scale(-1.2,-1.2)">
        <path
           id="path2635"
           d="M -3.8048674,-3.9585227 L 0.54352094,0"
           style="fill:none;fill-rule:evenodd;stroke:#000000;stroke-width:0.80000001;stroke-linecap:round;marker-start:none;marker-end:none" />
        <path
           id="path2637"
           d="M -1.2866832,-3.9585227 L 3.0617053,0"
           style="fill:none;fill-rule:evenodd;stroke:#000000;stroke-width:0.80000001;stroke-linecap:round;marker-start:none;marker-end:none" />
        <path
           id="path2639"
           d="M 1.3053582,-3.9585227 L 5.6537466,0"
           style="fill:none;fill-rule:evenodd;stroke:#000000;stroke-width:0.80000001;stroke-linecap:round;marker-start:none;marker-end:none" />
        <path
           id="path2641"
           d="M -3.8048674,4.1775838 L 0.54352094,0.21974226"
           style="fill:none;fill-rule:evenodd;stroke:#000000;stroke-width:0.80000001;stroke-linecap:round;marker-start:none;marker-end:none" />
        <path
           id="path2643"
           d="M -1.2866832,4.1775838 L 3.0617053,0.21974226"
           style="fill:none;fill-rule:evenodd;stroke:#000000;stroke-width:0.80000001;stroke-linecap:round;marker-start:none;marker-end:none" />
        <path
           id="path2645"
           d="M 1.3053582,4.1775838 L 5.6537466,0.21974226"
           style="fill:none;fill-rule:evenodd;stroke:#000000;stroke-width:0.80000001;stroke-linecap:round;marker-start:none;marker-end:none" />
      </g>
    </marker>
    <marker
       id="marker2621"
       inkscape:stockid="DistanceIn"
       orient="auto"
       style="overflow:visible"
       refX="0"
       refY="0">
      <g
         id="g2623">
        <path
           d="M 0,0 L 2,0"
           id="path2625"
           style="fill:none;stroke:#ffffff;stroke-width:1.14999998;stroke-linecap:square" />
        <path
           d="M 0,0 L 13,4 L 9,0 L 13,-4 L 0,0 z "
           id="path2627"
           style="fill:#000000;fill-rule:evenodd;stroke:none" />
        <path
           d="M 0,-4 L 0,40"
           id="path2629"
           style="fill:none;stroke:#000000;stroke-width:1;stroke-linecap:square" />
      </g>
    </marker>
    <marker
       id="marker2611"
       inkscape:stockid="DistanceOut"
       orient="auto"
       style="overflow:visible"
       refX="0"
       refY="0">
      <g
         id="g2613">
        <path
           d="M 0,0 L -2,0"
           id="path2615"
           style="fill:none;stroke:#ffffff;stroke-width:1.14999998;stroke-linecap:square" />
        <path
           d="M 0,0 L -13,4 L -9,0 L -13,-4 L 0,0 z "
           id="path2617"
           style="fill:#000000;fill-rule:evenodd;stroke:none" />
        <path
           d="M 0,-4 L 0,40"
           id="path2619"
           style="fill:none;stroke:#000000;stroke-width:1;stroke-linecap:square" />
      </g>
    </marker>
    <marker
       id="marker2607"
       inkscape:stockid="Dot_l"
       orient="auto"
       style="overflow:visible"
       refX="0"
       refY="0">
      <path
         id="path2609"
         d="M -2.5,-1 C -2.5,1.76 -4.74,4 -7.5,4 C -10.26,4 -12.5,1.76 -12.5,-1 C -12.5,-3.76 -10.26,-6 -7.5,-6 C -4.74,-6 -2.5,-3.76 -2.5,-1 z "
         transform="matrix(0.8,0,0,0.8,5.92,0.8)"
         style="fill-rule:evenodd;stroke:#000000;stroke-width:1pt;marker-start:none;marker-end:none" />
    </marker>
    <marker
       id="marker2603"
       inkscape:stockid="Dot_m"
       orient="auto"
       style="overflow:visible"
       refX="0"
       refY="0">
      <path
         id="path2605"
         d="M -2.5,-1 C -2.5,1.76 -4.74,4 -7.5,4 C -10.26,4 -12.5,1.76 -12.5,-1 C -12.5,-3.76 -10.26,-6 -7.5,-6 C -4.74,-6 -2.5,-3.76 -2.5,-1 z "
         transform="matrix(0.4,0,0,0.4,2.96,0.4)"
         style="fill-rule:evenodd;stroke:#000000;stroke-width:1pt;marker-start:none;marker-end:none" />
    </marker>
    <marker
       id="marker2599"
       inkscape:stockid="Dot_s"
       orient="auto"
       style="overflow:visible"
       refX="0"
       refY="0">
      <path
         id="path2601"
         d="M -2.5,-1 C -2.5,1.76 -4.74,4 -7.5,4 C -10.26,4 -12.5,1.76 -12.5,-1 C -12.5,-3.76 -10.26,-6 -7.5,-6 C -4.74,-6 -2.5,-3.76 -2.5,-1 z "
         transform="matrix(0.2,0,0,0.2,1.48,0.2)"
         style="fill-rule:evenodd;stroke:#000000;stroke-width:1pt;marker-start:none;marker-end:none" />
    </marker>
  </defs>
  <metadata
     id="metadata2165">
    <rdf:RDF>
      <cc:Work
         rdf:about="">
        <dc:format>image/svg+xml</dc:format>
        <dc:type
           rdf:resource="http://purl.org/dc/dcmitype/StillImage" />
      </cc:Work>
    </rdf:RDF>
  </metadata>
  <g
     inkscape:label="Layer 1"
     id="layer1"
     inkscape:groupmode="layer">
    <a
       transform="translate(-0.612442,-56.748373)"
       id="a2204">
      <g
         style="display:inline"
         transform="translate(0.612442,-65.971485)"
         id="g3448">
        <g
           transform="matrix(1.0363258,0,0,0.7766901,-3.4743436,43.042974)"
           id="g7334">
          <path
             sodipodi:nodetypes="cc"
             id="path2209"
             d="M 120.12183,99.505629 C 104.67871,64.124922 28.007272,64.120932 8.7074508,97.880379"
             style="opacity:0.93000034;fill:none;fill-rule:evenodd;stroke:#a4a4a4;stroke-width:8.47113419;stroke-linecap:butt;stroke-linejoin:miter;stroke-miterlimit:4;stroke-dasharray:none;stroke-opacity:1;filter:url(#filter8319)"
             transform="matrix(0.9735198,-7.0553252e-3,7.2755319e-3,0.9440545,1.3132597,134.72601)" />
          <path
             transform="matrix(0.973547,0,0,0.9440808,1.5687398,14.880525)"
             style="opacity:0.93000034;fill:none;fill-rule:evenodd;stroke:#a4a4a4;stroke-width:8.47113419;stroke-linecap:butt;stroke-linejoin:miter;stroke-miterlimit:4;stroke-dasharray:none;stroke-opacity:1;filter:url(#filter8335)"
             d="M 120.00268,241.14964 C 100.43064,269.48684 28.773798,269.77487 10.412563,241.02109"
             id="path3452"
             sodipodi:nodetypes="cc" />
        </g>
      </g>
    </a>
  </g>
</svg>
